<svg viewbox="0 0 1920 1080" xmlns="http://www.w3.org/2000/svg">
 <g>
  <title>Layer 1</title>
  <path stroke-width="5" d="m715,307c0,1 0,2 0,3c0,1 0,2 0,3c0,1 0,2 0,3c0,2 0,3 0,4c0,1 0,2 0,3c0,1 0,2 0,3c0,1 0,2 0,3c0,1 0,2 0,3c0,1 0,3 0,5c0,1 0,2 0,4c0,1 0,2 0,3c0,1 0,2 0,3c0,2 0,3 0,4c0,1 0,2 0,3c0,1 0.48627,1.82376 1,4c0.22974,0.97324 0,2 0,3c0,1 0,3 0,4c0,1 0,2 0,3c0,1 1,2 1,3c0,1 0,2 0,3c0,2 0,3 0,4c0,1 1,3 1,4c0,1 0,3 0,5c0,2 0,4 0,7c0,1 0.48627,2.82376 1,5c0.45953,1.9465 1,4 1,6c0,2 1,3 1,6c0,2 0,4 0,7c0,2 0,5 0,6c0,2 0,5 0,7c0,1 0,5 0,7c0,2 0,5 0,7c0,4 0,6 0,9c0,2 0,4 0,7c0,1 0.49347,3.87857 1,7c0.64075,3.94836 0,9 0,11c0,5 0,8 0,12c0,3 0,5 0,9c0,3 -0.91901,5.10699 0,9c0.51373,2.17624 1,6 1,9c0,3 -1.53076,5.3045 0,9c0.5412,1.30658 1,5 1,8c0,2 -0.37823,5.03607 0,7c1.01837,5.28802 2,9 2,12c0,2 0,5 0,9c0,3 -0.22974,6.02673 0,7c0.51373,2.17627 1,4 1,6c0,2 1,4 1,6c0,2 0.49622,2.90778 1,7c0.24438,1.98499 0,6 0,10c0,2 -0.39417,6.01947 0,10c0.50244,5.07422 1,11 1,16c0,4 0,8 0,12c0,3 0,7 0,11c0,3 -1,9 -1,12c0,6 -2,12 -2,16c0,4 -1.51947,7.03876 -2,10c-0.50653,3.12146 -1,4 -1,6c0,1 0,2 0,4c0,1 -0.21014,4.07843 1,7c0.85571,2.06586 1,5 1,7c0,2 -0.16016,6.01294 0,7c0.50653,3.12146 0.67963,5.02582 1,7c0.50653,3.12146 0.35925,4.05164 1,8c0.50653,3.12146 1,6 1,9c0,1 0,4 0,6c0,1 0,5 0,7c0,2 0,4 0,6c0,2 0,5 0,7c0,3 0,5 0,8c0,5 0,7 0,11c0,3 0,6 0,8c0,2 0,6 0,7c0,3 0.49347,4.87854 1,8c0.48053,2.96124 0,5 0,8c0,3 0,4 0,8c0,4 0,6 0,8c0,3 -0.49622,4.90778 -1,9c-0.24438,1.98499 0.45953,5.05353 0,7c-0.51373,2.17627 -1,5 -1,6c0,3 0,4 0,8c0,2 -1,4 -1,5c0,1 0,2 0,3c0,1 0,2 0,4c0,1 0,3 0,4l0,1l0,2" id="svg_2" stroke="#000" fill="none"/>
  <path stroke-width="5" d="m715,311c1,0 1.02582,-0.67963 3,-1c3.12146,-0.50653 7,-1 14,-1c7,0 11,0 13,0c3,0 5,0 9,0c1,0 4,0 7,0c4,0 5,0 7,0c2,0 3.93414,-0.14429 6,-1c2.92157,-1.21014 3.93414,-1.14429 6,-2c2.92157,-1.21014 5.04132,-1.84723 9,-3c3.03619,-0.88412 5.96381,-1.11588 9,-2c3.95868,-1.15277 6.93414,-1.14429 9,-2c2.92157,-1.21014 7.87854,-2.49347 11,-3c5.92255,-0.96109 9.02728,-0.65985 17,0c6.06201,0.50171 9.50433,1.59399 14,4c1.24689,0.6673 4,2 5,2c2,0 5.03802,0.11072 11,-2c8.05414,-2.85141 13.64935,-6.00812 21,-8c7.78162,-2.10864 16.03809,-1.67319 26,-3c6.02954,-0.80307 14,-1 20,-1c5,0 11.02246,-0.36655 14,0c4.09222,0.50378 7.82373,1.48627 10,2c3.89301,0.91901 7,1 10,1c2,0 4.93414,1.14429 7,2c2.92157,1.21014 5.87854,2.49347 9,3c1.97418,0.32037 2.69342,0.4588 4,1c1.84778,0.76538 4,1 5,1c1,0 3,1 5,1c1,0 4,1 6,1c2,0 5,1 6,1c3,0 4.69342,0.4588 6,1c1.84778,0.76538 5.90778,1.49622 10,2c0.99255,0.12219 3.93408,0.14429 6,1c2.92151,1.21014 6.05347,0.5405 8,1c4.35254,1.0275 8.12878,2.13065 11,3c3.45081,1.04483 5,3 7,3c1,0 3.82373,1.48627 6,2c0.97327,0.22977 3.69348,0.4588 5,1c0.92383,0.38269 3,1 4,1c2,0 4,0 8,0c1,0 3,0 6,0c1,0 2,0 5,0c1,0 2,0 3,0c1,0 2,0 3,0c1,0 2,0 3,0c1,0 2,0 2,1c0,3 0,5 0,8c0,3 0,5 0,6c0,3 0,4 0,7c0,2 0,6 0,8c0,3 0,5 0,7c0,2 0,4 0,6c0,2 0,4 0,6c0,1 0,4 0,5c0,2 0,3 0,4c0,1 0.07617,1.61731 1,2c1.30652,0.5412 1,2 1,3c0,1 0,2 0,3l1,0l0,-1" id="svg_3" stroke="#000" fill="none"/>
  <path stroke-width="5" d="m530,867c1,0 2.29291,-0.70709 3,0c0.70709,0.70709 2,1 5,1c3,0 9,0 14,0c7,0 12,0 15,0c4,0 6.05164,0.64075 10,0c3.12146,-0.50653 6.02582,-1.67963 8,-2c3.12146,-0.50653 5.04132,-0.84723 9,-2c3.03619,-0.88416 5,-2 7,-2c5,0 9,0 13,0c4,0 9.02246,0.63342 12,1c4.09222,0.50378 8,2 12,2c3,0 5,0 8,0c3,0 7,0 10,0c3,0 7,0 12,0c5,0 11,1 14,1c3,0 8,1 12,1c3,0 8,1 14,1c3,0 7,0 10,0c2,0 6,0 9,0c4,0 6,-1 10,-1c3,0 6,0 8,0c2,0 5.82373,-0.48627 8,-1c3.89301,-0.91901 9,0 14,0c3,0 11,0 17,0c5,0 12.01703,-0.41241 17,0c6.06201,0.50171 9.90778,1.49622 14,2c2.97754,0.36658 6.90778,0.49622 11,1c2.97754,0.36658 6,0 8,0c2,0 6,1 10,1c3,0 7.01501,0.75562 9,1c4.09222,0.50378 6.90778,1.49622 11,2c3.97003,0.48871 6,1 11,2c5,1 11,1 15,1c7,0 13,0 16,0c4,0 7,0 9,0c2,0 6,0 9,0c3,0 5,0 9,0c2,0 6.0097,0.80292 8,1c5.07422,0.50244 10,1 13,1c6,0 8.90778,0.49622 13,1c3.97003,0.48871 9.22833,-1.14807 12,0c2.6131,1.0824 4.02673,1.77026 5,2c2.17627,0.51373 4,1 5,1c1,0 2,0 3,0c1,0 2,0 3,0l1,0l1,0l1,0" id="svg_4" stroke="#000" fill="none"/>
  <path stroke-width="5" d="m994,881c0,1 0.4588,1.69342 1,3c0.38269,0.92389 0.18835,4.94366 1,8c1.30878,4.92822 1,10 1,14c0,5 0,9 0,11c0,3 0,5 0,6c0,3 0,5 0,6c0,2 0,3 0,4c0,1 0,2 0,3c0,1 0,2 0,3c0,1 0,2 0,3l0,1l0,1" id="svg_5" stroke="#000" fill="none"/>
  <path stroke-width="5" d="m531,866c0,1 0,2 0,5c0,2 0,4 0,6c0,2 0.68927,4.08026 0,7c-0.51373,2.17627 -1,5 -1,7c0,3 -1,5 -1,6c0,1 0.76538,2.15222 0,4c-0.5412,1.30658 -1,2 -1,4c0,2 0,3 0,4c0,1 0,2 0,3c0,1 0,2 0,3c0,1 0,2 0,3c0,1 0,2 0,3c0,1 1,1 1,3c0,1 -0.70709,2.29291 0,3c0.70709,0.70709 1,1 1,2c0,2 0,3 0,4c0,1 0,2 0,3c0,1 0,2 0,3c0,1 0,2 0,3c0,1 0,2 0,3c0,1 0,2 0,3l0,1l0,1l0,1" id="svg_6" stroke="#000" fill="none"/>
  <path stroke-width="5" d="m1146,511c-1,0 -1.69348,-0.4588 -3,-1c-1.84778,-0.76538 -3.15222,0.76538 -5,0c-1.30652,-0.5412 -4,-2 -5,-2c-3,0 -5,0 -7,0c-3,0 -3.90784,-0.49622 -8,-1c-1.98499,-0.24435 -4.54919,-0.95517 -8,-2c-1.91418,-0.57956 -5,0 -7,0c-2,0 -5,-1 -7,-1c-3,0 -6,0 -9,0c-2,0 -5,0 -8,0c-1,0 -3.87854,2.49347 -7,3c-1.97412,0.32037 -3.29871,0.94855 -5,2c-1.9021,1.17557 -3,3 -4,4c-2,2 -3.19031,3.88153 -5,7c-1.12231,1.93399 -1.48621,3.82376 -2,6c-0.45947,1.9465 0,4 0,6c0,3 0,4 0,7c0,3 -0.14807,6.22836 1,9c0.54114,1.30655 1.78979,2.07843 3,5c0.85571,2.06586 2.38513,4.37201 5,8c1.65381,2.29453 3.297,5.61383 6,8c1.67639,1.47983 4.06604,3.87766 6,5c3.11853,1.80972 9.23401,5.49295 14,8c6.38196,3.35712 10.77173,6.38528 19,11c5.85083,3.28137 10.54919,6.95517 14,8c2.87122,0.86935 5,0 9,0c2,0 4.85278,-0.1731 6,-1c1.81396,-1.30746 5.06604,-2.87766 7,-4c3.11853,-1.80972 4.78979,-4.07843 6,-7c1.71143,-4.13171 3.38513,-6.37201 6,-10c1.65381,-2.29453 2.56946,-6.133 4,-10c1.55164,-4.19434 2.44836,-5.80566 4,-10c1.43054,-3.867 2,-7 2,-11c0,-3 0,-6 0,-7c0,-2 0.38269,-5.07611 0,-6c-0.54114,-1.30655 -1,-4 -3,-6c-1,-1 -2.1731,-4.85272 -3,-6c-1.3075,-1.814 -2,-3 -3,-4c-1,-1 -0.85278,-2.1731 -2,-3c-1.81396,-1.30746 -2.69348,-2.4588 -4,-3c-0.92383,-0.38269 -1.69348,-1.4588 -3,-2c-0.92383,-0.38269 -1.82373,-0.48627 -4,-1c-0.97327,-0.22977 -1,-2 -3,-2l-1,0" id="svg_7" stroke="#000" fill="none"/>
  <path d="m1107,575c0,-1 0,-2 0,-3c0,-1 0.29285,-1.29291 1,-2c0.70715,-0.70709 0.29285,-1.29291 1,-2c0.70715,-0.70709 1,-1 1,-2c0,-1 0.58582,-0.58578 2,-2c0.70715,-0.70709 1,-1 2,-1c1,0 2,-1 3,-1c1,0 2,0 3,0c1,0 2,0 3,0c1,0 3,0 4,0c1,0 2,0 3,0c1,0 2.29285,0.29291 3,1c0.70715,0.70709 1.29285,1.29291 2,2c0.70715,0.70709 1.61731,0.07611 2,1c0.54114,1.30655 2.82446,0.0979 4,2c0.52576,0.85065 0.29285,1.29291 1,2c0.70715,0.70709 2,1 2,2c0,1 1,1 1,2l0,1l0,1" id="svg_10" stroke-width="5" stroke="#000" fill="none"/>
  <path d="m1130,608c0,0 1.45886,-0.30655 2,1c0.76538,1.84775 1,5 1,10c0,2 0,6 0,10c0,2 0,5 0,8c0,2 0,4 0,6c0,1 1,4 1,6c0,2 0,3 0,6c0,2 -0.68921,4.08026 0,7c0.51379,2.17627 0.61731,5.07611 1,6c0.54114,1.30658 1.83984,4.01294 2,5c0.50659,3.12146 0.67969,7.02582 1,9c0.50659,3.12146 2,5 2,6c0,4 1.97253,8.64752 3,13c0.68921,2.91974 0.49341,4.87854 1,8c0.48059,2.96124 1,5 1,7c0,3 1,6 1,8c0,2 1,4 1,6c0,2 0,4 0,5c0,2 0,4 0,6c0,1 0,2 0,4c0,2 0,4 0,6c0,2 0,4 0,7c0,1 0,4 0,7c0,1 0,2 0,4c0,3 0,5 0,6c0,2 0,4 0,6c0,2 0,3 0,5c0,3 0,4 0,6c0,3 0,4 0,6c0,1 0,4 0,6c0,1 0,3 0,6c0,2 0,3 0,7c0,2 0,5 0,7c0,1 0,4 0,7c0,2 0,4 0,5c0,3 0,6 0,7c0,3 0,5 0,8c0,2 0,3 0,6c0,2 0,3 0,5c0,2 0,3 0,5c0,1 0,3 0,4l0,1" id="svg_11" stroke-width="5" stroke="#000" fill="none"/>
  <path d="m1130,608c1,0 0.93408,-1.14429 3,-2c2.92151,-1.21014 4.08582,-3.42041 6,-4c3.45081,-1.04486 6.88147,-4.19031 10,-6c3.86804,-2.24469 7,-3 12,-6c5,-3 8,-4 12,-6c2,-1 5.88147,-2.19031 9,-4c3.86804,-2.24469 6.13196,-2.75531 10,-5c3.11853,-1.80969 6.38684,-3.9176 9,-5c3.69556,-1.53076 5,-1 7,-2c2,-1 4,-2 5,-2l1,-1l1,0" id="svg_12" stroke-width="5" stroke="#000" fill="none"/>
  <path d="m1131,607c0,0 -1,0 -2,0c-6,0 -11.11597,1.66443 -23,0c-14.41943,-2.01953 -22.26404,-7.51062 -30,-12c-6.23694,-3.61945 -11.84692,-5.98834 -18,-12c-3.57642,-3.4942 -7.34619,-5.70544 -9,-8c-1.3075,-1.81396 -4,-3 -5,-5l-1,-1l-1,0l0,-1" id="svg_13" stroke-width="5" stroke="#000" fill="none"/>
  <path stroke="#000" d="m1150,870c1.03333,0 1.22557,0.67189 3.1,1.9403c2.37104,1.60444 6.43651,6.52873 11.36667,10.67164c2.1778,1.83004 4.47643,4.10312 6.2,7.76119c1.50724,3.19888 5.38035,6.60932 7.23333,8.73134c2.36208,2.7051 4.84892,6.00138 6.2,7.76119c0.85447,1.11303 1.33594,1.25431 2.06667,1.9403c0.73073,0.68599 1.67122,2.01414 2.06667,2.91045c0.55918,1.26758 2.54082,1.64287 3.1,2.91045c0.39545,0.89631 1.2122,0.82727 2.06667,1.9403c1.35108,1.75982 2.06667,2.91045 3.1,3.8806c1.03333,0.97015 2.78225,2.12078 4.13333,3.8806c0.85447,1.11303 2.17351,1.84941 3.1,2.91045c2.36208,2.7051 4.13333,3.8806 5.16667,4.85075l1.03333,0.97015l0,1.9403l2.06667,0" id="svg_14" stroke-width="5" fill="none"/>
  <path d="m1147,866c0,0 0,1 0,2c0,4 -2.11353,6.92029 -7,14c-6.14429,8.9021 -10.03857,13.11639 -15,20c-2.61487,3.62799 -6.41162,8.40399 -10,13c-2.61096,3.34406 -6.21167,6.71411 -9,9c-3.28101,2.68976 -6.1731,5.85272 -7,7c-1.3075,1.81396 -1.29285,2.29291 -2,3c-0.70715,0.70709 -2.29285,-0.70709 -3,0c-0.70715,0.70709 -0.61731,1.07611 -1,2c-0.54114,1.30658 -1,2 -2,3c-1,1 -1.61731,1.07611 -2,2c-0.54114,1.30658 -2,1 -2,2l-1,0l0,1" id="svg_15" stroke-width="5" stroke="#000" fill="none"/>
  <path d="m1102,382c0,1 -0.61731,2.07611 -1,3c-1.0824,2.61313 -2.85278,3.1731 -4,4c-1.81396,1.30746 -3.45886,1.69345 -4,3c-0.38269,0.92389 -2.29285,1.29291 -3,2c-0.70715,0.70709 -0.29285,1.29291 -1,2c-0.70715,0.70709 -0.82446,1.0979 -2,3c-0.52576,0.85065 -1.07617,1.61731 -2,2c-1.30652,0.5412 -2,1 -2,2c0,2 -1,3 -1,4c0,1 0,2 0,3c0,1 0,2 0,3c0,1 0,3 0,4c0,1 1,1 1,2c0,1 2.1731,0.85272 3,2c1.3075,1.814 1.69348,2.4588 3,3c0.92383,0.38269 2.29285,0.29291 3,1c0.70715,0.70709 1.69348,0.4588 3,1c0.92383,0.38269 1,1 2,1c1,0 2,1 3,1c1,0 1.69348,0.4588 3,1c0.92383,0.38269 1.29285,0.29291 2,1c0.70715,0.70709 2.07617,0.61731 3,1c1.30652,0.5412 2.29285,1.29291 3,2c0.70715,0.70709 0.82373,1.48627 3,2c0.97327,0.22977 1.29285,0.29291 2,1c0.70715,0.70709 1.85278,0.1731 3,1c1.81396,1.30746 3.1731,0.85272 4,2c1.3075,1.814 1.85278,2.1731 3,3c1.81396,1.30746 3,1 5,3c1,1 2.41882,2.41885 4,4c1.58118,1.58115 2,2 2,3c0,1 1,1 1,2c0,1 1,1 1,2c0,1 0,2 0,3c0,1 0.38269,2.07611 0,3c-0.54114,1.30655 -2,2 -3,2c-1,0 -1.69348,1.4588 -3,2c-0.92383,0.38269 -2.69348,0.4588 -4,1c-0.92383,0.38269 -2.15222,-0.76538 -4,0c-1.30652,0.5412 -2,1 -3,1c-2,0 -4,1 -6,1c-2,0 -5,1 -6,1c-2,0 -5.07617,0.61731 -6,1c-1.30652,0.5412 -2.02673,0.77023 -3,1c-2.17627,0.51373 -3.15222,1.23462 -5,2c-1.30652,0.5412 -2.69348,1.4588 -4,2c-1.84778,0.76538 -3.02673,-0.22977 -4,0c-2.17627,0.51373 -3.82446,0.0979 -5,2c-0.52576,0.85065 -1.02673,1.77023 -2,2c-2.17627,0.51373 -2.29285,1.29291 -3,2c-0.70715,0.70709 -1,1 -3,1c-1,0 -2.07617,0.61731 -3,1c-2.61316,1.0824 -3.15222,2.23462 -5,3c-1.30652,0.5412 -1.85278,1.1731 -3,2c-1.81396,1.30746 -3.29285,0.29291 -4,1c-0.70715,0.70709 -0.69348,2.4588 -2,3c-1.84778,0.76538 -2.07617,0.61731 -3,1c-1.30652,0.5412 -0.58582,2.58578 -2,4c-0.70715,0.70709 -1.58582,-0.41422 -3,1c-1.41418,1.41422 -1,3 -1,5c0,1 0,2 0,3c0,1 0,2 0,3c0,2 0,3 0,4c0,1 -1,1 -1,2c0,1 0,2 0,3c0,1 0,2 0,3c0,1 0,2 0,3c0,2 -0.29285,2.29291 -1,3c-0.70715,0.70709 0,2 0,3c0,1 0,2 0,3c0,1 0,2 0,4c0,1 0,2 0,4c0,2 0.77026,4.02673 1,5c0.51379,2.17627 0.5282,3.11835 1,4c1.70129,3.17889 3.23462,3.15222 4,5c0.54114,1.30658 0.29285,2.29291 1,3c0.70715,0.70709 2.77026,2.02673 3,3c0.51379,2.17627 1.77026,4.02673 2,5c0.51379,2.17627 2.9552,2.54913 4,6c0.86938,2.87128 0.23462,4.15222 1,6c0.54114,1.30658 1.9176,3.3869 3,6c0.38269,0.92389 0.77026,2.02673 1,3c0.51379,2.17627 1.29285,2.29291 2,3c0.70715,0.70709 2.07849,0.78986 5,2c2.06592,0.85571 7,3 9,3c3,0 6,1 9,1c3,0 6,0 8,0c2,0 4,0 6,0c1,0 3.02588,0.32037 5,0c3.12146,-0.50653 6,-2 8,-2c3,0 5,0 10,0c5,0 8.87854,1.49347 12,2c1.97412,0.32037 3,1 5,1c1,0 2,0 3,0c1,0 2,0 3,0c1,0 1.69348,0.4588 3,1c0.92383,0.38269 2,0 3,0c1,0 2.29285,0.70709 3,0c1.41418,-1.41418 -2.10339,-5.90631 -3,-7c-2.28589,-2.78833 -2.29285,-5.29291 -3,-6c-0.70715,-0.70709 -1.77026,-0.02673 -2,-1c-0.51379,-2.17627 -1.29285,-2.29291 -2,-3c-0.70715,-0.70709 -1.69348,-0.4588 -3,-1c-0.92383,-0.38269 -1.69348,-0.4588 -3,-1c-0.92383,-0.38269 -2,0 -3,0c-1,0 -2,0 -4,0c-1,0 -2,0 -3,0c-2,0 -3.07617,-0.38269 -4,0c-1.30652,0.5412 -1.82373,1.48627 -4,2c-0.97327,0.22974 -1.61731,0.07611 -2,1c-0.54114,1.30658 -1.82373,1.48627 -4,2c-1.94653,0.45953 -3,1 -5,2c-2,1 -2.69348,2.4588 -4,3c-0.92383,0.38269 -1.82373,1.48627 -4,2c-0.97327,0.22974 -1.29285,1.29291 -2,2c-0.70715,0.70709 -2.29285,-0.70709 -3,0c-0.70715,0.70709 -1,2 -2,2c-1,0 -2,0 -4,0c-1,0 -2,0 -3,0l-1,0" id="svg_16" stroke-width="5" stroke="#000" fill="none"/>
  <path d="m1086,520c0,1 1.82446,2.0979 3,4c1.05151,1.70129 1.07617,2.61731 2,3c1.30652,0.5412 1.77026,3.02673 2,4c0.51379,2.17627 1.77026,3.02673 2,4c0.51379,2.17627 1.61731,3.07611 2,4c0.54114,1.30658 1,2 2,2l1,1l0,2" id="svg_17" stroke-width="5" stroke="#000" fill="none"/>
  <path d="m1104,527c0,0 -2,0 -3,0c-1,0 -1.85278,0.1731 -3,1c-1.81396,1.30743 -3,2 -4,2c-1,0 -3.07617,0.61731 -4,1c-1.30652,0.5412 -2,2 -3,2c-1,0 -0.69348,1.4588 -2,2c-0.92383,0.38269 -2,1 -3,1l0,1l-1,0l-1,0" id="svg_18" stroke-width="5" stroke="#000" fill="none"/>
  <path d="m1126,522c1,0 2,0 3,1c1,1 2.77026,2.02673 3,3c0.51379,2.17627 2.18604,2.69257 4,4c2.29456,1.65381 1.29285,4.29291 2,5c0.70715,0.70709 1.29285,0.29291 2,1c0.70715,0.70709 0.29285,1.29291 1,2c0.70715,0.70709 -0.70715,2.29291 0,3c0.70715,0.70709 2.29285,0.29291 3,1c0.70715,0.70709 1,1 1,2l1,1l1,1" id="svg_19" stroke-width="5" stroke="#000" fill="none"/>
  <path d="m1123,540c1,0 1.29285,-1.29291 2,-2c0.70715,-0.70709 1.18604,-0.69257 3,-2c1.14722,-0.8269 1.47424,-2.14935 2,-3c1.17554,-1.9021 2.29285,-2.29291 3,-3c0.70715,-0.70709 2,-1 3,-2c1,-1 1.29285,-1.29291 2,-2c0.70715,-0.70709 0.69348,-1.4588 2,-2c0.92383,-0.38269 1,-1 2,-1c1,0 1.29285,-0.29291 2,-1c0.70715,-0.70709 2.1731,-0.85272 3,-2c1.3075,-1.81396 2,-2 2,-3l1,0" id="svg_20" stroke-width="5" stroke="#000" fill="none"/>
 </g>
</svg>